<svg width="24" height="20" viewBox="0 0 24 20" fill="none" xmlns="http://www.w3.org/2000/svg">
<path fill-rule="evenodd" clip-rule="evenodd" d="M0.3125 18.5C0.3125 18.2182 0.424442 17.948 0.623699 17.7487C0.822957 17.5494 1.09321 17.4375 1.375 17.4375H22.625C22.9068 17.4375 23.177 17.5494 23.3763 17.7487C23.5756 17.948 23.6875 18.2182 23.6875 18.5C23.6875 18.7818 23.5756 19.052 23.3763 19.2513C23.177 19.4506 22.9068 19.5625 22.625 19.5625H1.375C1.09321 19.5625 0.822957 19.4506 0.623699 19.2513C0.424442 19.052 0.3125 18.7818 0.3125 18.5ZM0.3125 10C0.3125 9.71821 0.424442 9.44796 0.623699 9.2487C0.822957 9.04944 1.09321 8.9375 1.375 8.9375H22.625C22.9068 8.9375 23.177 9.04944 23.3763 9.2487C23.5756 9.44796 23.6875 9.71821 23.6875 10C23.6875 10.2818 23.5756 10.552 23.3763 10.7513C23.177 10.9506 22.9068 11.0625 22.625 11.0625H1.375C1.09321 11.0625 0.822957 10.9506 0.623699 10.7513C0.424442 10.552 0.3125 10.2818 0.3125 10ZM0.3125 1.5C0.3125 1.21821 0.424442 0.947957 0.623699 0.748699C0.822957 0.549442 1.09321 0.4375 1.375 0.4375H22.625C22.9068 0.4375 23.177 0.549442 23.3763 0.748699C23.5756 0.947957 23.6875 1.21821 23.6875 1.5C23.6875 1.78179 23.5756 2.05204 23.3763 2.2513C23.177 2.45056 22.9068 2.5625 22.625 2.5625H1.375C1.09321 2.5625 0.822957 2.45056 0.623699 2.2513C0.424442 2.05204 0.3125 1.78179 0.3125 1.5Z" fill="white"/>
</svg>
